<?xml version="1.0" standalone="no"?>
<!DOCTYPE svg PUBLIC "-//W3C//DTD SVG 20010904//EN"
 "http://www.w3.org/TR/2001/REC-SVG-20010904/DTD/svg10.dtd">
<svg version="1.0" xmlns="http://www.w3.org/2000/svg"
 width="400.000000pt" height="400.000000pt" viewBox="0 0 400.000000 400.000000"
 preserveAspectRatio="xMidYMid meet">
<metadata>
Created by potrace 1.11, written by Peter Selinger 2001-2013
</metadata>
<g transform="translate(0.000000,400.000000) scale(0.100000,-0.100000)"
fill="#000000" stroke="none">
<path d="M189 3261 c-16 -16 -30 -40 -30 -53 -1 -13 -2 -564 -3 -1226 -1
-1310 -4 -1250 54 -1279 18 -9 101 -13 312 -13 l288 0 32 29 32 29 1 118 1
119 54 2 c30 2 201 4 380 6 179 2 339 7 355 11 75 17 172 50 241 81 l76 35 43
-24 c38 -22 188 -74 261 -92 16 -4 182 -9 369 -11 187 -2 358 -4 380 -6 l39
-2 1 -107 c1 -116 11 -147 52 -169 37 -20 579 -20 616 0 54 29 52 -27 51 1282
-1 668 -2 1219 -3 1226 0 7 -14 26 -31 43 l-30 31 -293 -4 c-315 -4 -324 -6
-350 -58 -8 -17 -12 -67 -12 -138 l0 -111 -30 -1 c-16 0 -192 0 -390 -1 -401
0 -427 -4 -603 -74 -75 -31 -87 -33 -106 -21 -36 23 -160 65 -237 81 -58 11
-157 14 -447 14 -206 0 -376 3 -380 7 -4 4 -7 57 -8 118 -1 122 -11 158 -51
176 -16 7 -123 11 -314 11 l-291 0 -29 -29z m596 -1274 l0 -1207 -267 0 c-207
0 -268 3 -269 13 -1 16 -1 2378 0 2395 1 10 58 12 269 10 l267 -3 0 -1208z
m2916 1196 c1 -10 2 -552 3 -1205 1 -1181 1 -1188 -19 -1189 -126 -7 -515 -2
-516 6 0 6 -1 547 -2 1202 -2 1038 0 1193 13 1195 8 2 128 5 267 6 240 4 253
3 254 -15z m-1924 -331 c317 -109 519 -297 608 -567 31 -92 37 -142 38 -285 1
-133 -9 -203 -44 -299 -11 -31 -21 -60 -22 -66 -1 -5 -4 -12 -7 -15 -3 -3 -16
-25 -29 -50 -14 -25 -27 -47 -30 -50 -3 -3 -11 -14 -17 -25 -7 -11 -19 -19
-28 -19 -23 2 -117 61 -168 105 -33 28 -40 39 -32 50 19 23 85 149 79 149 -3
0 -1 8 4 18 10 20 22 66 23 92 0 8 5 20 10 27 5 7 5 14 -2 18 -6 3 -8 11 -4
16 10 17 11 69 1 69 -5 0 -4 6 2 13 6 8 8 17 4 20 -3 4 -7 17 -8 29 -5 68 -21
122 -61 203 -86 177 -261 314 -463 362 -52 12 -137 15 -410 17 l-345 1 -1 100
c-1 55 0 105 2 111 3 7 125 10 406 9 l402 -1 92 -32z m1296 24 c2 -6 3 -56 3
-111 l-1 -100 -355 -1 c-195 0 -376 -4 -401 -8 -44 -7 -46 -6 -97 43 -29 28
-73 65 -99 82 -38 27 -43 33 -29 41 27 15 129 48 166 54 19 3 36 7 37 8 2 1
176 2 387 3 267 0 386 -4 389 -11z m-1553 -306 c36 -2 68 -5 72 -7 4 -2 -6
-27 -23 -56 -28 -48 -45 -83 -72 -147 -10 -25 -14 -36 -21 -67 -3 -10 -5 -18
-7 -18 -1 0 -3 -9 -5 -20 -2 -11 -8 -42 -14 -69 -5 -26 -8 -52 -5 -56 3 -5 2
-11 -3 -13 -6 -4 -9 -232 -2 -232 1 0 3 -13 6 -30 2 -16 5 -39 7 -50 16 -88
21 -106 28 -111 5 -3 9 -12 9 -21 0 -17 60 -154 71 -163 7 -6 39 -66 39 -75 0
-3 -163 -4 -362 -3 l-363 3 -1 560 c0 308 3 565 7 570 7 9 457 12 639 5z
m1551 -5 c4 -29 5 -1112 1 -1122 -3 -10 -85 -13 -363 -13 -197 0 -359 1 -359
3 0 2 20 39 45 83 25 43 48 90 52 104 3 14 10 30 14 36 5 6 11 21 13 35 3 13
5 24 6 24 1 0 3 8 5 19 2 10 9 41 16 70 14 56 18 292 6 368 -7 43 -39 160 -54
198 -4 8 -7 17 -7 20 -1 3 -21 41 -46 85 -25 44 -46 83 -48 87 -5 11 43 13
386 13 214 0 332 -4 333 -10z m-1328 -52 c72 -41 167 -112 167 -125 0 -4 -15
-33 -34 -65 -18 -32 -39 -76 -45 -98 -7 -22 -15 -47 -18 -55 -11 -29 -14 -56
-17 -167 -2 -62 -1 -113 3 -113 4 0 8 -12 9 -26 7 -85 80 -220 165 -307 76
-77 132 -116 245 -171 l87 -41 385 -5 385 -5 0 -128 0 -129 -375 4 c-346 4
-381 6 -453 26 -101 28 -224 86 -322 152 -86 58 -215 177 -215 198 0 7 -4 10
-10 7 -5 -3 -10 -2 -10 4 0 5 -14 30 -30 55 -32 47 -87 162 -94 193 -1 10 -6
25 -9 33 -6 15 -12 49 -24 130 -15 108 -2 299 24 370 8 20 11 30 17 60 3 14
10 26 15 28 6 2 8 9 5 16 -3 8 2 20 10 29 9 9 16 23 16 31 0 9 5 16 12 16 6 0
9 3 5 6 -9 9 55 93 71 94 2 0 18 -8 35 -17z m272 -265 c9 -24 21 -52 26 -63
26 -63 35 -244 15 -315 -4 -14 -8 -29 -10 -35 -13 -44 -57 -135 -66 -135 -3 0
-13 9 -23 20 -9 11 -15 20 -12 20 3 0 -4 15 -14 33 -18 33 -30 69 -39 122 -7
42 -7 173 0 215 9 51 48 160 58 160 5 0 12 9 15 21 9 27 27 12 50 -43z m-192
-1028 l59 -44 -27 -14 c-42 -22 -133 -52 -205 -67 -49 -10 -150 -13 -420 -12
l-355 2 0 128 0 127 370 1 c203 1 381 4 395 8 21 7 33 0 75 -39 28 -25 76 -66
108 -90z"/>
</g>
</svg>
