<?xml version="1.0" encoding="utf-8" ?>
<!-- Generator: Adobe Illustrator 23.0.3, SVG Export Plug-In . SVG Version: 6.00 Build 0)  -->
<svg version="1.1" id="Layer_1" xmlns="http://www.w3.org/2000/svg" xmlns:xlink="http://www.w3.org/1999/xlink" x="0px" y="0px" viewBox="0 0 2295.1 260.1"  xml:space="preserve">
	<style type="text/css">
	.st0{fill:none;stroke:#FEBD1C;stroke-width:4;stroke-miterlimit:10;}
	.st1{fill:#FEBD1C;}
	.st2{font-family:'Algerian';}
	.st3{font-size:120px;}
</style>
	<path class="st0" d="M61.99,255.6H9.87c-2.97,0-5.37-2.4-5.37-5.37V9.87C4.5,6.9,6.9,4.5,9.87,4.5h52.12c2.97,0,5.37,2.4,5.37,5.37
	v240.36C67.36,253.2,64.96,255.6,61.99,255.6z" />
	<path class="st0" d="M182.03,211.86c-3.87,2.2-7.65,4.08-11.19,5.68c-12.11,5.48-25.28,8.2-38.57,8.2H67.36v-35.19h73.62
	c2.97,0,5.92-0.5,8.71-1.52 M182.03,211.86 M182.03,167.44c7.96-9.23,14.03-21.77,14.03-38.56c0-28.47-17.46-44.73-31.96-53.32
	c-9.37-5.55-20.12-8.34-31.01-8.34H67.36V35.79h78.66c0,0,3.74,0.16,5.59,0.49c15.29,2.68,80.1,21.79,80.1,92.61
	c0,25.91-8.68,45.02-20.43,59.09 M205.06,128.88 M210.93,70.08c1.44-0.6,2.73-1.09,3.85-1.49c2.52-0.9,5.17-1.37,7.85-1.37h74.07
	V35.79h-78.66c-1.88,0-3.74,0.16-5.59,0.49c-5.5,0.96-17.42,4.06-30.43,10.92 M182.03,167.44c-7.96-9.23-14.03-21.77-14.03-38.56
	c0-16.79,6.07-29.33,14.03-38.56 M210.94,187.69c-7.76-3.23-19.62-9.48-28.9-20.25 M152.91,70.04
	c-11.81,13.81-20.55,32.84-20.55,58.84c0,51.17,33.83,75.81,58.37,87.49c13.04,6.21,27.32,9.36,41.76,9.36l64.21,0v-35.19h-73.62
	c-2.98,0-5.94-0.5-8.74-1.52c-1.01-0.37-2.16-0.81-3.41-1.33" />
	<path class="st0 logo" d="M353.98,255.02h-52.12c-2.97,0-5.37-2.4-5.37-5.37V10.45c0-2.97,2.4-5.37,5.37-5.37h52.12
	c2.97,0,5.37,2.4,5.37,5.37v239.2C359.35,252.62,356.95,255.02,353.98,255.02z" />
</svg>