<svg xmlns="http://www.w3.org/2000/svg" id="Layer_1" viewBox="0 0 354 566.5">
    <style>
      .st0{}
    </style>
    <path data-name="stroke" fill="none" stroke="#0072ce" stroke-width="10" stroke-linecap="round" stroke-linejoin="round" d="M73.7 113.5l51.3 85.1" style="stroke-dashoffset: 0px; stroke-dasharray: 100;"></path>
    <path data-name="stroke" fill="none" stroke="#fff" stroke-miterlimit="10" stroke-width="10" d="M346.6 512v-.1L284 406.1c-4.7-8.1-15.1-10.8-23.1-6.1l-.1.1-37.3 22.1c-16.5 7.4-28.1-4.2-54-39.4l-53.4-90.1c-10.6-23-17.2-43.5-1.2-54.8l26.6-15.7 10.7-6.4c8.1-4.8 10.8-15.2 6.1-23.3 0 0 0-.1-.1-.1v-.1L95.6 86.7c-4.7-8.1-15-10.8-23.1-6.1-.1 0-.1.1-.2.1L35 102.8c-20.6 17-69.9 100.9 32.4 278.7C173.8 566 277.6 569.4 303.3 557.4l32.2-19 5-3c8.1-4.7 10.8-15.1 6.1-23.3.1 0 0 0 0-.1z" style="stroke-dashoffset: 0px; stroke-dasharray: 1376;"></path>
    <path data-name="stroke" fill="none" stroke="#0072ce" stroke-width="10" stroke-linecap="round" stroke-linejoin="round" d="M237.3 162.2c14-52.2-16.9-106.7-69-121.4M273.2 171.8C292.5 100.1 250 25.2 178.5 5M201 154.8c9.1-34.2-10.9-69.3-44.9-79M265.4 431.1l51.4 85.1" style="stroke-dashoffset: 0px; stroke-dasharray: 568;"></path>
  </svg>